<svg width="263" height="197" viewBox="0 0 263 197" fill="none" xmlns="http://www.w3.org/2000/svg">
<path d="M187.661 0.107007C165.24 0.00399667 145.09 9.78697 131.249 25.3728C117.409 9.78696 97.2581 0.00400195 74.8375 0.107007C32.7361 0.300435 -0.817649 34.96 0.0151741 77.349C0.822893 118.461 34.1697 151.537 75.1881 151.537C76.7795 151.537 78.3589 151.488 79.9262 151.389C114.108 149.248 148.39 149.248 182.572 151.389C184.139 151.488 185.719 151.537 187.31 151.537C228.329 151.537 261.676 118.461 262.483 77.349C263.316 34.96 229.762 0.30044 187.661 0.107007Z" fill="white"/>
<path d="M184.799 42.2077L184.073 47.5289L179.589 80.3636L172.244 134.135L170.405 147.597C170.265 148.625 169.757 149.567 168.976 150.249C168.194 150.931 167.192 151.307 166.155 151.307H117.177C116.142 151.307 115.141 150.933 114.36 150.253C113.579 149.573 113.07 148.634 112.927 147.608L111.057 134.135L103.588 80.3636L99.024 47.5052L98.2906 42.2183C98.2059 41.6109 98.2525 40.9925 98.4271 40.4047C98.6018 39.8169 98.9004 39.2734 99.303 38.8108C99.7056 38.3482 100.203 37.9774 100.761 37.7232C101.319 37.4691 101.925 37.3376 102.538 37.3376H180.549C181.161 37.3379 181.766 37.4692 182.324 37.7227C182.881 37.9762 183.378 38.346 183.78 38.8073C184.183 39.2686 184.482 39.8107 184.658 40.3972C184.833 40.9837 184.882 41.601 184.799 42.2077Z" fill="#734230"/>
<path d="M175.634 23.0916H107.706C105.337 23.0916 103.417 25.0121 103.417 27.3812V33.048C103.417 35.4171 105.337 37.3377 107.706 37.3377H175.634C178.003 37.3377 179.924 35.4171 179.924 33.048V27.3812C179.924 25.0121 178.003 23.0916 175.634 23.0916Z" fill="#2F2E41"/>
<path opacity="0.1" d="M179.924 29.824V33.0478C179.924 34.1855 179.472 35.2766 178.667 36.0811C177.863 36.8855 176.772 37.3375 175.634 37.3375H107.706C106.568 37.3375 105.477 36.8855 104.673 36.0811C103.868 35.2766 103.417 34.1855 103.417 33.0478V29.8319C128.861 32.2564 154.479 32.2537 179.924 29.824Z" fill="black"/>
<path opacity="0.1" d="M184.555 40.1077H184.555C184.554 40.1045 184.553 40.1014 184.551 40.0982C184.439 39.8029 184.293 39.521 184.118 39.2577L184.118 39.257C184.066 39.1793 184.012 39.1041 183.955 39.03C183.936 39.0052 183.917 38.9809 183.897 38.9565C183.733 38.7502 183.55 38.5594 183.351 38.3865C183.306 38.3478 183.261 38.3097 183.215 38.2728C183.163 38.2315 183.111 38.191 183.058 38.1521C182.991 38.1033 182.921 38.0575 182.851 38.0126C182.796 37.9772 182.741 37.9425 182.684 37.9097C182.596 37.8588 182.506 37.811 182.414 37.7662C182.37 37.745 182.326 37.7252 182.281 37.7055C182.194 37.6665 182.104 37.6306 182.014 37.5977C181.977 37.5843 181.941 37.5698 181.904 37.5574C181.778 37.5155 181.65 37.4794 181.519 37.449C181.487 37.4416 181.454 37.4364 181.422 37.4297C181.315 37.4075 181.207 37.3894 181.097 37.3754C181.057 37.3703 181.017 37.3652 180.977 37.3612C180.836 37.3473 180.694 37.3377 180.549 37.3377L180.549 37.3376H102.538C101.926 37.3397 101.321 37.4725 100.764 37.7272C100.207 37.982 99.7104 38.3527 99.3083 38.8147C98.9061 39.2766 98.6073 39.8192 98.4317 40.4059C98.2561 40.9927 98.2079 41.6102 98.2903 42.2171L98.4142 43.1091L99.024 47.5052L99.0247 47.5052L103.588 80.3636H103.588L109.579 123.495L112.928 147.607C113.07 148.633 113.579 149.572 114.36 150.252C115.141 150.932 116.141 151.307 117.176 151.307H119.501C119.386 151.007 119.305 150.695 119.259 150.377L117.003 134.135H172.244L179.589 80.3636H109.535L105.045 48.0311C131.352 50.1646 157.795 49.9966 184.073 47.5289L184.799 42.2077C184.895 41.4983 184.812 40.7761 184.555 40.1077Z" fill="black"/>
<path d="M190.936 44.4607C158.189 48.0351 125.151 48.0351 92.4046 44.4607C91.267 44.4607 90.176 44.0088 89.3716 43.2044C88.5672 42.4 88.1152 41.3089 88.1152 40.1713V34.504C88.1152 33.3664 88.5672 32.2754 89.3716 31.4709C90.176 30.6665 91.267 30.2146 92.4046 30.2146C125.125 34.2376 158.215 34.2376 190.936 30.2146C192.073 30.2146 193.164 30.6665 193.969 31.4709C194.773 32.2754 195.225 33.3664 195.225 34.504V40.1713C195.225 41.3089 194.773 42.4 193.969 43.2044C193.164 44.0088 192.073 44.4607 190.936 44.4607Z" fill="#2F2E41"/>
<path d="M174.261 132.18H108.31C107.718 132.18 107.145 131.969 106.695 131.584C106.245 131.2 105.946 130.667 105.854 130.083L98.7288 85.1955C98.6724 84.8403 98.6937 84.4771 98.7912 84.131C98.8887 83.7849 99.0602 83.464 99.2936 83.1906C99.5271 82.9171 99.8172 82.6975 100.144 82.5469C100.47 82.3963 100.826 82.3184 101.185 82.3184H181.86C182.222 82.3184 182.58 82.3973 182.908 82.5496C183.236 82.7019 183.527 82.924 183.76 83.2003C183.994 83.4767 184.164 83.8006 184.26 84.1495C184.355 84.4985 184.373 84.8641 184.313 85.2207L176.713 130.108C176.615 130.687 176.315 131.213 175.866 131.592C175.417 131.972 174.848 132.18 174.261 132.18Z" fill="#2F2E41"/>
<path d="M33.373 151.438H215.671" stroke="#3F3D56" stroke-miterlimit="10"/>
<path d="M48.4507 127.021V134.442L52.2617 138.855C52.2617 138.855 53.8663 138.253 53.8663 134.242L54.468 128.425L48.4507 127.021Z" fill="#A0616A"/>
<path d="M52.2615 134.442C52.2615 134.442 46.0436 130.23 45.8431 128.826C45.6425 127.422 36.8171 121.004 38.2211 125.015C39.6252 129.027 44.0379 130.832 44.0379 130.832C44.0379 130.832 47.4477 140.058 50.4563 139.858C53.465 139.657 53.465 135.846 52.2615 134.442Z" fill="#A0616A"/>
<path d="M55.872 179.572L56.4737 183.182L53.2644 182.38V179.572H55.872Z" fill="#3F3D56"/>
<path d="M55.2702 181.578C55.2702 181.578 51.561 179.38 51.4099 180.379C51.2587 181.377 49.6541 185.188 48.8518 185.589C48.0494 185.991 47.0466 190.403 48.8518 190.203C50.2499 190.047 55.378 187.365 57.6195 186.164C57.8954 186.015 58.1038 185.766 58.2018 185.468C58.2998 185.171 58.2799 184.847 58.1461 184.563C58.0147 184.32 57.924 184.057 57.8777 183.784C57.8777 183.383 55.2702 181.578 55.2702 181.578Z" fill="#2F2E41"/>
<path d="M57.0754 140.861C57.0754 140.861 42.4333 147.68 43.8373 152.895C45.2414 158.11 50.4564 180.174 50.4564 180.174C50.4564 180.174 56.2731 181.578 56.6743 180.174C57.0754 178.77 52.8633 156.907 53.2645 156.104C53.6656 155.302 61.0869 150.087 61.0869 150.087L76.3308 143.669L69.9124 137.651L57.0754 140.861Z" fill="#2F2E41"/>
<path d="M46.0438 180.776L44.2385 185.389L47.4479 186.793L49.4537 183.182L46.0438 180.776Z" fill="#3F3D56"/>
<path d="M56.8751 107.966C56.8751 107.966 58.6803 110.373 57.2762 111.576C55.8722 112.78 56.8751 117.192 56.8751 117.192L58.6803 122.207L65.9011 120.803V112.579L65.4999 108.568C65.4999 108.568 61.8895 105.158 61.4884 102.55C61.0872 99.9428 56.8751 107.966 56.8751 107.966Z" fill="#A0616A"/>
<path opacity="0.1" d="M56.8751 107.966C56.8751 107.966 58.6803 110.373 57.2762 111.576C55.8722 112.78 56.8751 117.192 56.8751 117.192L58.6803 122.207L65.9011 120.803V112.579L65.4999 108.568C65.4999 108.568 61.8895 105.158 61.4884 102.55C61.0872 99.9428 56.8751 107.966 56.8751 107.966Z" fill="black"/>
<path d="M68.9095 139.256C68.9095 139.256 59.4824 149.686 59.4824 150.087C59.4824 150.488 54.4679 158.712 54.4679 158.712L44.6396 180.575C44.6396 180.575 48.4506 185.79 50.0552 185.389C51.6598 184.988 63.0928 161.721 63.0928 161.721C63.0928 161.721 65.0985 156.506 70.5141 155.302C75.9297 154.099 80.1418 149.887 78.1361 145.073C76.1303 140.259 68.9095 139.256 68.9095 139.256Z" fill="#2F2E41"/>
<path d="M56.875 109.37C60.4198 109.37 63.2935 106.497 63.2935 102.952C63.2935 99.4069 60.4198 96.5332 56.875 96.5332C53.3302 96.5332 50.4565 99.4069 50.4565 102.952C50.4565 106.497 53.3302 109.37 56.875 109.37Z" fill="#A0616A"/>
<path d="M57.0755 113.382C57.0755 113.382 57.8778 117.995 58.6801 118.396C59.4824 118.797 60.0842 120.201 61.8894 118.196C63.6946 116.19 65.2992 112.178 65.2992 112.178L71.5171 119.8L72.1188 140.861C72.1188 140.861 65.0986 139.056 62.8923 140.861C60.6859 142.666 55.8721 142.465 55.8721 142.465L56.875 138.454L56.0726 131.634L56.2732 125.416L56.4738 121.004L57.0755 113.382Z" fill="#F2F2F2"/>
<path d="M57.7822 110.005C57.7822 110.005 55.0699 111.376 54.8693 112.178C54.6687 112.98 51.0583 114.585 51.0583 114.585C51.0583 114.585 49.6543 115.989 49.6543 116.791C49.6543 117.594 54.4681 126.82 54.4681 126.82C54.4681 126.82 55.471 133.038 55.0699 134.242C54.6687 135.445 55.8722 140.058 55.8722 140.058L53.4653 142.866H55.6716C55.6716 142.866 58.0785 141.663 58.0785 141.061C58.0785 140.459 57.6774 136.247 57.4768 134.442C57.2762 132.637 57.2762 126.218 57.6774 124.012C58.0785 121.806 57.878 115.989 57.878 114.585C57.878 113.181 57.7822 110.005 57.7822 110.005Z" fill="#3F3D56"/>
<path d="M63.9954 106.96C63.9954 106.96 64.8979 107.164 67.5054 107.966C70.1129 108.768 74.1245 109.972 75.5285 111.576C76.514 112.763 77.387 114.039 78.136 115.387L77.3337 129.829C77.3337 129.829 78.9383 132.837 78.7378 134.442C78.5372 136.047 76.9326 136.247 78.136 139.657C79.3395 143.067 81.7464 146.076 79.5401 146.477C77.3337 146.878 71.517 145.474 68.9095 146.276C66.302 147.078 63.2933 143.268 63.2933 143.268C63.2933 143.268 67.3048 143.669 66.7031 142.064C66.1014 140.459 59.4823 122.407 60.8864 118.396C62.2904 114.384 63.9954 106.96 63.9954 106.96Z" fill="#3F3D56"/>
<path d="M50.657 115.789L49.6541 116.591C49.6541 116.591 46.846 126.62 47.6483 127.623C48.4506 128.626 54.8691 130.832 55.2703 129.428C55.6714 128.024 50.657 115.789 50.657 115.789Z" fill="#3F3D56"/>
<path d="M80.3426 122.809C80.3426 122.809 83.3513 131.433 83.3513 133.84C83.3513 136.247 82.9501 150.288 82.9501 150.288C82.9501 150.288 82.7495 156.305 78.5374 153.898C74.3253 151.491 78.5374 149.887 78.5374 149.887C78.5374 149.887 78.3368 134.041 76.7322 131.835C75.1276 129.628 74.5259 126.419 74.5259 126.419L80.3426 122.809Z" fill="#A0616A"/>
<path d="M47.4479 185.188C47.4479 185.188 44.4392 183.584 43.8375 184.787C43.2357 185.991 40.0265 192.61 40.4276 193.412C40.8288 194.214 43.0351 197.424 45.6427 196.621C48.2502 195.819 48.4507 191.607 48.4507 191.607L48.6513 186.793L47.4479 185.188Z" fill="#2F2E41"/>
<path d="M55.6181 101.401C56.0602 101.609 56.5847 101.734 56.8625 102.136C57.0684 102.433 57.0888 102.821 57.2391 103.15C57.403 103.476 57.6852 103.728 58.0281 103.853C58.371 103.978 58.7488 103.968 59.0845 103.825C59.1666 103.425 59.3989 103.072 59.7335 102.839C59.9025 102.728 60.1027 102.674 60.3047 102.685C60.5067 102.696 60.6999 102.772 60.8557 102.901C61.2691 103.295 61.1228 103.982 61.3157 104.52C61.4968 104.898 61.746 105.24 62.0507 105.528C62.4897 106.034 62.8395 106.628 63.3682 107.041C63.8969 107.453 64.6986 107.631 65.2239 107.215C65.6655 106.865 65.7571 106.219 65.6498 105.665C65.5426 105.112 65.2766 104.602 65.1266 104.059C64.6391 102.294 65.4162 100.409 65.1758 98.5931C64.8677 96.2667 62.8904 94.4291 60.6833 93.6315C59.7648 93.2575 58.7593 93.151 57.7829 93.3242C56.7735 93.5496 55.9113 94.1922 54.9446 94.5597C53.9108 94.9528 52.7867 95.0214 51.7048 95.2511C50.623 95.4809 49.5097 95.9251 48.8819 96.8357C48.444 97.4707 48.2935 98.2594 47.9307 98.9401C47.5129 99.7171 46.8363 100.323 46.0183 100.653L47.1619 100.588C46.9702 101.099 46.6575 101.555 46.2507 101.918C46.787 102.027 47.3444 101.954 47.8339 101.709C47.825 101.944 47.7681 102.175 47.6665 102.387C47.565 102.599 47.4211 102.788 47.2436 102.943C48.1236 102.916 49.0516 102.875 49.7952 102.404C50.1594 102.173 50.4564 101.852 50.7992 101.59C51.5297 101.032 52.4361 100.767 53.3196 100.514C53.7836 100.38 54.342 100.195 54.7616 100.494C55.111 100.742 55.1662 101.188 55.6181 101.401Z" fill="#2F2E41"/>
<path d="M75.1274 112.98L78.136 115.387L82.1476 124.614C82.1476 124.614 76.5314 129.027 75.1274 128.425C73.7233 127.823 71.3164 117.193 71.3164 117.193L75.1274 112.98Z" fill="#3F3D56"/>
<path d="M45.2212 122.299L45.1709 122.668L44.8601 124.943L44.3512 128.668L44.2238 129.601C44.2141 129.672 44.1789 129.738 44.1248 129.785C44.0707 129.832 44.0012 129.858 43.9294 129.858H40.5358C40.4641 129.858 40.3947 129.832 40.3406 129.785C40.2865 129.738 40.2512 129.673 40.2413 129.602L40.1117 128.668L39.5943 124.943L39.278 122.666L39.2272 122.3C39.2213 122.258 39.2246 122.215 39.2367 122.174C39.2488 122.133 39.2695 122.096 39.2974 122.063C39.3252 122.031 39.3597 122.006 39.3984 121.988C39.437 121.971 39.479 121.961 39.5215 121.961H44.9267C44.9691 121.961 45.011 121.971 45.0496 121.988C45.0883 122.006 45.1227 122.031 45.1506 122.063C45.1785 122.095 45.1992 122.133 45.2114 122.173C45.2235 122.214 45.2269 122.257 45.2212 122.299Z" fill="#734230"/>
<path d="M44.586 120.974H39.8795C39.7153 120.974 39.5823 121.107 39.5823 121.272V121.664C39.5823 121.828 39.7153 121.961 39.8795 121.961H44.586C44.7502 121.961 44.8832 121.828 44.8832 121.664V121.272C44.8832 121.107 44.7502 120.974 44.586 120.974Z" fill="#2F2E41"/>
<path d="M45.6461 122.455C43.3772 122.703 41.0881 122.703 38.8192 122.455C38.7801 122.455 38.7415 122.447 38.7054 122.432C38.6694 122.418 38.6366 122.396 38.609 122.368C38.5814 122.34 38.5595 122.308 38.5446 122.272C38.5297 122.236 38.522 122.197 38.522 122.158V121.765C38.522 121.686 38.5533 121.611 38.609 121.555C38.6648 121.499 38.7404 121.468 38.8192 121.468C41.0863 121.747 43.379 121.747 45.6461 121.468C45.7249 121.468 45.8005 121.499 45.8563 121.555C45.912 121.611 45.9433 121.686 45.9433 121.765V122.158C45.9433 122.237 45.912 122.312 45.8563 122.368C45.8005 122.424 45.7249 122.455 45.6461 122.455Z" fill="#2F2E41"/>
<path d="M44.4909 128.533H39.9214C39.8803 128.533 39.8407 128.518 39.8095 128.492C39.7783 128.465 39.7576 128.428 39.7512 128.388L39.2575 125.277C39.2536 125.253 39.2551 125.228 39.2618 125.204C39.2686 125.18 39.2805 125.158 39.2966 125.139C39.3128 125.12 39.3329 125.104 39.3555 125.094C39.3782 125.084 39.4028 125.078 39.4277 125.078H45.0175C45.0425 125.078 45.0673 125.084 45.09 125.094C45.1128 125.105 45.1329 125.12 45.1491 125.139C45.1653 125.158 45.1771 125.181 45.1837 125.205C45.1903 125.229 45.1916 125.255 45.1874 125.279L44.6608 128.389C44.654 128.429 44.6332 128.466 44.6021 128.492C44.571 128.518 44.5316 128.533 44.4909 128.533Z" fill="#2F2E41"/>
</svg>
