<svg width="128" height="73" viewBox="0 0 128 73" fill="none" xmlns="http://www.w3.org/2000/svg">
<g clip-path="url(#clip0)">
<path d="M127.097 7.00115C127.699 7.5952 128.002 8.34557 128.002 9.25708C128.002 10.1301 127.701 10.8636 127.097 11.4601C126.494 12.0541 125.745 12.3524 124.847 12.3524H115.851C114.955 12.3524 114.206 12.0469 113.601 11.4336C112.999 10.8203 112.696 10.0604 112.696 9.15125C112.696 8.27582 112.997 7.55191 113.601 6.9747C114.204 6.39749 114.955 6.10889 115.851 6.10889H124.847C125.743 6.11129 126.494 6.40711 127.097 7.00115Z" fill="#734230"/>
<path d="M88.6361 11.1281C88.1572 11.8039 87.9177 12.5399 87.9177 13.336V15.7795H92.5813C93.4016 15.7795 94.0844 16.0488 94.6297 16.5852C95.175 17.1239 95.45 17.8069 95.45 18.6391C95.45 19.4712 95.1774 20.1542 94.6297 20.693C94.082 21.2317 93.3992 21.4986 92.5813 21.4986H87.9177V39.8972C87.9177 40.799 87.6261 41.5518 87.0476 42.1579C86.4667 42.764 85.7317 43.067 84.845 43.067C83.9559 43.067 83.2233 42.764 82.6425 42.1579C82.0616 41.5518 81.7723 40.799 81.7723 39.8972V21.4986H79.0055C78.1852 21.4986 77.5024 21.2317 76.957 20.693C76.4094 20.1566 76.1367 19.4712 76.1367 18.6391C76.1367 17.8069 76.4094 17.1239 76.957 16.5852C77.5024 16.0488 78.1875 15.7795 79.0055 15.7795H81.7723V13.3889C81.7723 10.789 82.6519 8.6774 84.4111 7.04679C86.1704 5.41858 88.7072 4.60327 92.0194 4.60327C93.283 4.60327 94.3831 4.86302 95.3244 5.3825C96.2633 5.90199 96.7327 6.70046 96.7327 7.77311C96.7327 8.60525 96.4932 9.28106 96.0143 9.80055C95.5354 10.32 94.9545 10.5798 94.2717 10.5798C94.101 10.5798 93.9208 10.5629 93.7335 10.5269C93.5462 10.4932 93.3494 10.4571 93.1432 10.4235C92.3228 10.2166 91.64 10.1108 91.0947 10.1108C89.933 10.1132 89.1126 10.4523 88.6361 11.1281Z" fill="#734230"/>
<path d="M127.028 30.5391C126.414 31.0586 125.696 31.3183 124.875 31.3183H107.968C108.379 33.3626 109.317 34.9644 110.787 36.126C112.255 37.2876 113.912 37.8673 115.757 37.8673C117.158 37.8673 118.249 37.7374 119.036 37.4776C119.821 37.2179 120.444 36.9413 120.906 36.6455C121.366 36.3521 121.684 36.1525 121.855 36.0466C122.469 35.734 123.05 35.5777 123.597 35.5777C124.316 35.5777 124.93 35.8374 125.442 36.3569C125.954 36.8764 126.21 37.4824 126.21 38.1751C126.21 39.1107 125.731 39.9596 124.776 40.722C123.818 41.5205 122.538 42.1963 120.932 42.7495C119.327 43.3026 117.706 43.5816 116.065 43.5816C113.196 43.5816 110.693 42.9755 108.559 41.7634C106.423 40.5513 104.775 38.8798 103.615 36.7489C102.454 34.618 101.873 32.2202 101.873 29.5506C101.873 26.5708 102.487 23.9565 103.717 21.703C104.948 19.4519 106.57 17.7275 108.585 16.5322C110.6 15.3369 112.753 14.738 115.041 14.738C117.295 14.738 119.422 15.3609 121.421 16.6092C123.42 17.8574 125.015 19.5385 126.212 21.6501C127.407 23.7641 128.005 26.0513 128.005 28.5117C127.967 29.3438 127.642 30.0196 127.028 30.5391ZM108.018 26.1211H121.442V25.7579C121.305 24.3029 120.605 23.0546 119.342 22.0157C118.078 20.9767 116.643 20.4572 115.038 20.4572C111.074 20.4572 108.737 22.3452 108.018 26.1211Z" fill="#734230"/>
<path d="M89.0983 65.5467C89.0983 66.0277 88.9181 66.439 88.5601 66.7853C88.1997 67.1316 87.8038 67.3024 87.3675 67.3024C86.8199 67.3024 86.3552 67.0523 85.9782 66.5544L82.5736 62.2663L79.2543 66.5544C79.0836 66.7853 78.8797 66.9633 78.645 67.0859C78.4079 67.211 78.159 67.2735 77.8934 67.2735C77.4951 67.2735 77.1181 67.1196 76.7578 66.8142C76.3974 66.5063 76.2196 66.1528 76.2196 65.7487C76.2196 65.3639 76.3618 65.0008 76.644 64.6545L80.5868 59.7626L76.5017 54.611C76.2551 54.3032 76.1318 53.9593 76.1318 53.5745C76.1318 53.0959 76.3073 52.687 76.6558 52.3503C77.0067 52.016 77.4074 51.8477 77.8626 51.8477C78.4103 51.8477 78.875 52.0882 79.2519 52.5668L82.7443 56.9704L85.9782 52.6245C86.3362 52.1074 86.7914 51.8477 87.3391 51.8477C87.7919 51.8477 88.176 52.0064 88.489 52.3214C88.8019 52.6365 88.9561 52.9973 88.9561 53.4013C88.9561 53.8246 88.8233 54.1974 88.5577 54.5245L84.6434 59.3586L88.7284 64.5102C88.975 64.818 89.0983 65.1643 89.0983 65.5467Z" fill="#734230"/>
<path d="M107.798 52.3528C108.12 52.6895 108.279 53.1056 108.279 53.6058V65.8378C108.279 68.3318 107.617 70.15 106.292 71.2924C104.969 72.4348 103.2 73.0048 100.986 73.0048C100.343 73.0048 99.6844 72.9519 99.0134 72.8461C98.3424 72.7403 97.7971 72.6008 97.3822 72.4276C96.4552 72.0236 95.9929 71.468 95.9929 70.7585C95.9929 70.6238 96.0213 70.4699 96.0782 70.2991C96.192 69.8759 96.3864 69.556 96.6591 69.3347C96.9341 69.1135 97.2305 69.0028 97.5529 69.0028C97.7426 69.0028 97.9228 69.0317 98.0911 69.0894C98.2239 69.1471 98.4562 69.2433 98.7858 69.378C99.1154 69.5127 99.4662 69.6233 99.8361 69.7099C100.206 69.7965 100.588 69.8398 100.986 69.8398C102.328 69.8398 103.317 69.5464 103.95 68.962C104.583 68.3775 104.9 67.3746 104.9 65.9533V65.6646C103.916 66.9129 102.385 67.5358 100.303 67.5358C99.3192 67.5358 98.4491 67.3001 97.6928 66.8311C96.9365 66.3621 96.3485 65.7079 95.9336 64.8734C95.5163 64.0388 95.3101 63.084 95.3101 62.009V53.6058C95.3101 53.108 95.4713 52.6895 95.7914 52.3528C96.1138 52.0185 96.5192 51.8501 97.0124 51.8501C97.5031 51.8501 97.9109 52.0185 98.2334 52.3528C98.5558 52.6895 98.7147 53.1056 98.7147 53.6058V60.9724C98.7147 62.1822 98.9755 63.0504 99.4947 63.5771C100.014 64.1038 100.775 64.3683 101.778 64.3683C102.762 64.3683 103.523 64.0749 104.061 63.4905C104.599 62.9061 104.87 62.0667 104.87 60.9724V53.6058C104.87 53.108 105.031 52.6895 105.351 52.3528C105.673 52.0185 106.079 51.8501 106.572 51.8501C107.07 51.8477 107.475 52.0161 107.798 52.3528Z" fill="#734230"/>
<path d="M126.722 64.5246C127.025 64.8228 127.175 65.2004 127.175 65.6621C127.175 66.1047 127.023 66.4775 126.722 66.7853C126.419 67.0931 126.042 67.2447 125.586 67.2447H116.451C116.015 67.2447 115.652 67.0859 115.358 66.7709C115.064 66.4534 114.92 66.1143 114.92 65.7487C114.92 65.4216 114.958 65.1499 115.033 64.9286C115.109 64.7074 115.252 64.4548 115.458 64.1662L122.21 55.3013H116.707C116.254 55.3013 115.875 55.1473 115.572 54.8419C115.268 54.5341 115.119 54.1517 115.119 53.6899C115.119 53.2498 115.271 52.8794 115.572 52.5812C115.875 52.2829 116.252 52.1362 116.707 52.1362H125.446C125.861 52.1362 126.217 52.2853 126.511 52.5812C126.805 52.8794 126.95 53.2474 126.95 53.6899C126.95 53.9785 126.921 54.2214 126.864 54.4234C126.807 54.6254 126.675 54.8611 126.466 55.1281L119.657 64.0796H125.586C126.042 64.0796 126.419 64.2288 126.722 64.5246Z" fill="#734230"/>
<path d="M50.1113 20.4573C47.9253 20.4573 46.1305 21.2894 44.7317 22.9513C43.3305 24.6156 42.6311 26.6935 42.6311 29.1876C42.6311 31.6816 43.3234 33.7523 44.7056 35.3974C46.0879 37.0424 47.8898 37.8673 50.1113 37.8673C52.3304 37.8673 54.1418 37.0448 55.543 35.3974C56.9442 33.7523 57.6436 31.6816 57.6436 29.1876C57.6436 26.6935 56.9442 24.6132 55.543 22.9513C54.1418 21.287 52.3304 20.4573 50.1113 20.4573Z" fill="#40251B"/>
<path d="M48.2597 0C37.7211 0 28.7852 1.68112 25.6675 4.0116C26.6443 4.35071 27.5974 4.75956 28.5244 5.24057C30.7649 6.41423 32.0452 8.5499 32.0452 11.1016C32.0452 12.624 31.5473 14.0694 30.5657 15.397L30.5491 15.4187C29.3329 17.0397 27.5808 17.9295 25.62 17.9295C25.2383 17.9295 24.8613 17.8959 24.4844 17.8309V32.2154C24.8329 32.1577 25.1767 32.1288 25.5157 32.1288C27.4599 32.1288 29.238 33.0043 30.5207 34.594L30.561 34.6445C31.5639 35.9336 32.095 37.444 32.095 39.0097C32.095 40.2386 31.7796 41.3834 31.1561 42.408C30.5302 43.4397 29.6126 44.2647 28.503 44.801C27.6803 45.217 26.8387 45.5778 25.9828 45.8856C29.3566 54.8131 38.0578 54.8155 48.2597 54.8155C61.3898 54.8155 72.0351 54.8155 72.0351 35.7773V5.8298C72.0351 2.60946 61.3898 0 48.2597 0ZM63.5354 39.8947C63.5354 40.7966 63.2438 41.5494 62.6653 42.1554C62.0844 42.7615 61.3495 43.0645 60.4627 43.0645C59.5737 43.0645 58.8482 42.7711 58.2863 42.1819C57.722 41.5927 57.4232 40.8495 57.3901 39.9476C56.5365 40.9529 55.3819 41.8115 53.9309 42.521C52.4776 43.2305 50.9507 43.5864 49.3456 43.5864C46.9889 43.5864 44.8528 42.9707 42.9418 41.7418C41.0285 40.5128 39.5159 38.8052 38.4063 36.6215C37.2967 34.4377 36.7419 31.9605 36.7419 29.1899C36.7419 26.4193 37.2872 23.9325 38.3826 21.7319C39.4756 19.5313 40.9692 17.8165 42.8659 16.5875C44.7627 15.3585 46.8538 14.7429 49.1417 14.7429C50.7824 14.7429 52.3187 15.0459 53.7531 15.652C55.1875 16.258 56.399 17.03 57.3901 17.9656V17.9127C57.3901 17.0132 57.6793 16.258 58.2602 15.652C58.841 15.0459 59.5737 14.7429 60.4627 14.7429C61.3495 14.7429 62.0844 15.0387 62.6653 15.6255C63.2462 16.2147 63.5354 16.9771 63.5354 17.9127V39.8947Z" fill="#40251B"/>
<path d="M28.5385 39.0121C28.5385 38.8341 28.5243 38.6585 28.4958 38.4878C28.4911 38.4589 28.4863 38.4301 28.4792 38.4012C28.4128 38.0501 28.2895 37.7134 28.107 37.3863C28.0406 37.2684 27.9647 37.1554 27.8841 37.0399C27.8462 36.987 27.8106 36.9341 27.7703 36.8812C27.7016 36.797 27.6328 36.7201 27.5593 36.6431C27.5498 36.6335 27.5403 36.6215 27.5332 36.6119C27.4313 36.506 27.3246 36.4146 27.2155 36.3281C26.8172 36.013 26.3762 35.8254 25.8878 35.7629C25.8665 35.7605 25.8451 35.7557 25.8238 35.7533C25.7219 35.7436 25.6199 35.7364 25.5156 35.7364C25.416 35.7364 25.3117 35.746 25.2074 35.7581C25.16 35.7629 25.1125 35.7701 25.0628 35.7773C25.0177 35.7845 24.9703 35.7941 24.9252 35.8038C24.783 35.8326 24.636 35.8711 24.4843 35.9192C24.2875 35.9817 24.0883 36.0539 23.8749 36.1501C22.3386 36.9486 20.5272 37.3454 18.4432 37.3454C14.9248 37.3454 12.0821 36.2896 9.91272 34.1756C7.74335 32.0615 6.65985 28.9614 6.65985 24.8729C6.65985 22.4823 7.13877 20.361 8.09424 18.5068C9.04972 16.6525 10.4177 15.2143 12.1935 14.1921C13.9693 13.17 16.0533 12.6577 18.4432 12.6577C20.3897 12.6577 22.2011 13.0569 23.8749 13.853C24.259 14.0598 24.6431 14.1969 25.0272 14.2667C25.0462 14.2691 25.0628 14.2739 25.0817 14.2763C25.1505 14.2883 25.2216 14.2979 25.2904 14.3052C25.3117 14.3076 25.3354 14.31 25.3567 14.3124C25.4445 14.3196 25.5298 14.3244 25.6175 14.3244C25.985 14.3244 26.3217 14.2523 26.6299 14.12C27.0425 13.942 27.4052 13.6486 27.7182 13.2349C28.2303 12.5423 28.4863 11.8328 28.4863 11.1041C28.4863 9.89192 27.9552 9.00928 26.8978 8.45371C26.8955 8.45371 26.8931 8.45131 26.8907 8.45131C26.7105 8.35751 26.528 8.26853 26.3454 8.17954C26.2956 8.15549 26.2482 8.13384 26.1984 8.1122C26.0562 8.04486 25.9139 7.98233 25.7717 7.9198C25.7219 7.89815 25.6744 7.87891 25.6247 7.85726C25.4729 7.79233 25.3188 7.7298 25.1647 7.66967C25.1291 7.65524 25.0936 7.64081 25.058 7.62638C24.8683 7.55423 24.6787 7.48448 24.489 7.41714C24.4866 7.41714 24.4866 7.41714 24.4843 7.41474C22.5804 6.75816 20.5675 6.42627 18.4456 6.42627C14.9272 6.42627 11.7668 7.21512 8.96673 8.79042C6.16433 10.3657 3.97125 12.5567 2.38275 15.3634C0.794251 18.1701 0 21.3399 0 24.8753C0 28.8604 0.836927 32.2563 2.51078 35.063C4.18463 37.8697 6.42039 39.9933 9.22279 41.4291C12.0228 42.8673 15.0979 43.5865 18.4456 43.5865C20.7406 43.5865 22.9337 43.192 25.0296 42.4032C25.352 42.2805 25.6744 42.1506 25.9921 42.0112C26.0135 42.0015 26.0348 41.9919 26.0585 41.9823C26.196 41.9222 26.3312 41.8596 26.4663 41.7971C26.6275 41.7201 26.7888 41.6432 26.9476 41.5614C27.3483 41.3714 27.6731 41.1165 27.9268 40.799C27.9979 40.71 28.0667 40.6186 28.126 40.52C28.401 40.0679 28.5385 39.5652 28.5385 39.0121Z" fill="#40251B"/>
</g>
<defs>
<clipPath id="clip0">
<rect width="128" height="73" fill="white"/>
</clipPath>
</defs>
</svg>
