<svg width="36" height="24" viewBox="0 0 36 24" fill="none" xmlns="http://www.w3.org/2000/svg">
<path d="M33.9429 0H2.05714C0.921014 0 0 0.89543 0 2V22C0 23.1046 0.921014 24 2.05714 24H33.9429C35.079 24 36 23.1046 36 22V2C36 0.89543 35.079 0 33.9429 0Z" fill="#F1F2F8"/>
<path d="M21.7307 18.216H14.3584V5.33496H21.7307V18.216Z" fill="#FF5F00"/>
<path d="M14.8303 11.7745C14.8292 10.534 15.1183 9.30953 15.6758 8.19372C16.2333 7.0779 17.0446 6.1 18.0482 5.33402C16.8052 4.38411 15.3124 3.79336 13.7404 3.62931C12.1683 3.46526 10.5806 3.73453 9.15851 4.40632C7.73645 5.07812 6.5375 6.12535 5.69868 7.42831C4.85987 8.73127 4.41504 10.2374 4.41504 11.7745C4.41504 13.3117 4.85987 14.8178 5.69868 16.1207C6.5375 17.4237 7.73645 18.4709 9.15851 19.1427C10.5806 19.8145 12.1683 20.0838 13.7404 19.9197C15.3124 19.7557 16.8052 19.1649 18.0482 18.215C17.0446 17.4491 16.2333 16.4712 15.6758 15.3553C15.1183 14.2395 14.8292 13.015 14.8303 11.7745Z" fill="#EB001B"/>
<path d="M31.6737 11.7747C31.6738 13.3118 31.2291 14.8179 30.3903 16.1209C29.5516 17.4239 28.3527 18.4712 26.9306 19.143C25.5086 19.8148 23.9208 20.0841 22.3488 19.92C20.7768 19.7559 19.284 19.1651 18.041 18.2152C19.0439 17.4485 19.8547 16.4705 20.4121 15.3548C20.9696 14.2392 21.2593 13.015 21.2593 11.7747C21.2593 10.5343 20.9696 9.31017 20.4121 8.19451C19.8547 7.07886 19.0439 6.10082 18.041 5.33417C19.284 4.38419 20.7768 3.7934 22.3488 3.62932C23.9208 3.46525 25.5086 3.73451 26.9306 4.40632C28.3527 5.07814 29.5516 6.12541 30.3903 7.4284C31.2291 8.73139 31.6738 10.2375 31.6737 11.7747Z" fill="#F79E1B"/>
</svg>
